<?xml version="1.0" standalone="no"?><!DOCTYPE svg PUBLIC "-//W3C//DTD SVG 1.1//EN" "http://www.w3.org/Graphics/SVG/1.1/DTD/svg11.dtd"><svg t="1770881708403" class="icon" viewBox="0 0 1024 1024" version="1.1" xmlns="http://www.w3.org/2000/svg" p-id="5399" xmlns:xlink="http://www.w3.org/1999/xlink" width="200" height="200"><path d="M614.4 409.2416c0-16.2304 13.312-29.5936 29.3888-29.5936 16.0768 0 29.3376 13.3632 29.3376 29.5936v146.8928c0 16.2304-13.2608 29.5936-29.3376 29.5936a29.6448 29.6448 0 0 1-29.3888-29.5936V409.2416z m-256 0c0-16.2304 13.312-29.5936 29.3888-29.5936 16.0768 0 29.3376 13.3632 29.3376 29.5936v146.8928c0 16.2304-13.2608 29.5936-29.3376 29.5936A29.6448 29.6448 0 0 1 358.4 556.1344V409.2416z m438.784 277.504H226.816c-12.0832 0-22.016-9.3184-22.016-25.4976 0-16.2304 9.9328-25.6 22.016-25.6h570.368c12.0832 0 22.016 9.3696 22.016 25.6 0 16.6912-9.9328 25.5488-22.016 25.5488z" fill="#D3B365" p-id="5400"></path><path d="M940.032 640a76.8 76.8 0 0 1 76.8 76.8v51.2a76.8 76.8 0 0 1-76.8 76.8H83.968a76.8 76.8 0 0 1-76.8-76.8v-50.176a76.8 76.8 0 0 1 76.8-76.8h20.992c-11.776-91.5968 8.3968-174.1824 60.672-246.4256 54.528-75.3664 108.1344-135.424 225.8432-180.6336v-6.5024a76.8 76.8 0 0 1 76.8-76.8h91.8528a76.8 76.8 0 0 1 76.8 76.8v6.8096c120.832 48.3328 175.0016 108.1856 227.5328 180.224 50.5344 69.3248 70.4512 151.552 60.0064 245.504h15.5136z m0 153.6a25.6 25.6 0 0 0 25.6-25.6v-51.2a25.6 25.6 0 0 0-25.6-25.6h-75.4688l5.2224-30.0032c16.3328-93.3376 0.6656-171.6224-46.6432-236.544-48.3328-66.2016-99.9424-122.7776-220.8768-168.96l-16.4864-6.3488v-41.8816a25.6 25.6 0 0 0-25.6-25.6H468.3264a25.6 25.6 0 0 0-25.6 25.6v42.24l-16.8448 6.144c-117.4528 42.5984-168.2432 99.0208-218.7264 168.7552-49.4592 68.4032-65.0752 146.7904-46.848 237.0048l6.2464 30.6688H83.968a25.6 25.6 0 0 0-25.6 25.6V768a25.6 25.6 0 0 0 25.6 25.6H940.032z" fill="#000000" p-id="5401"></path></svg>